<?xml version="1.0" standalone="no"?>
<!DOCTYPE svg PUBLIC "-//W3C//DTD SVG 20010904//EN"
 "http://www.w3.org/TR/2001/REC-SVG-20010904/DTD/svg10.dtd">
<svg version="1.0" xmlns="http://www.w3.org/2000/svg"
 width="512.000000pt" height="512.000000pt" viewBox="0 0 512.000000 512.000000"
 preserveAspectRatio="xMidYMid meet">

<g transform="translate(0.000000,512.000000) scale(0.100000,-0.100000)"
fill="#000000" stroke="none">
<path d="M2120 5109 c-319 -32 -679 -107 -981 -205 -249 -80 -602 -231 -708
-304 -203 -137 -302 -397 -241 -634 45 -178 151 -311 313 -391 l92 -46 162
-305 163 -305 0 -794 c0 -545 3 -811 11 -847 18 -87 58 -158 123 -223 173
-173 441 -178 622 -13 51 47 123 166 125 204 0 17 2 16 16 -4 9 -12 156 -284
327 -605 292 -544 315 -583 352 -604 50 -29 98 -29 148 0 38 21 85 106 971
1760 l930 1739 57 23 c127 52 237 155 299 280 120 244 79 505 -111 696 -67 67
-90 83 -210 141 -463 225 -1003 378 -1532 433 -163 17 -774 19 -928 4z m740
-289 c383 -27 730 -95 1085 -214 284 -95 575 -226 635 -286 119 -119 118 -304
-4 -425 -94 -95 -212 -111 -351 -49 -44 20 -129 58 -190 84 l-110 49 -5 73
c-6 89 -28 131 -80 158 -50 25 -90 25 -140 0 -70 -36 -80 -70 -80 -281 0 -166
-2 -184 -21 -219 -25 -44 -83 -80 -128 -80 -51 0 -108 35 -131 80 -19 37 -20
58 -20 370 0 312 -1 333 -20 370 -23 45 -80 80 -130 80 -50 0 -107 -35 -130
-80 -16 -32 -20 -59 -20 -146 0 -87 -3 -105 -14 -101 -39 15 -360 29 -541 24
-300 -9 -552 -45 -830 -117 -241 -62 -412 -125 -720 -264 -65 -29 -92 -36
-145 -36 -114 0 -214 62 -268 165 -22 42 -27 63 -27 130 0 96 23 153 83 212
67 65 331 185 620 283 382 128 710 193 1142 223 108 8 407 6 540 -3z m-34
-900 c71 -5 144 -12 162 -15 l32 -6 0 -79 c0 -157 39 -261 134 -355 218 -218
577 -161 713 113 21 42 39 78 39 80 1 2 60 -24 132 -58 72 -33 135 -60 141
-60 5 0 12 -4 15 -9 4 -6 -790 -1508 -809 -1529 -1 -1 -29 14 -61 33 -233 141
-529 102 -724 -94 -151 -151 -208 -341 -165 -546 35 -167 161 -332 310 -406
39 -18 72 -35 74 -36 6 -3 -241 -463 -249 -463 -4 0 -181 326 -395 726 -299
559 -395 730 -419 747 -43 31 -129 31 -172 0 -61 -43 -64 -62 -64 -358 0 -258
-1 -269 -22 -307 -42 -74 -126 -97 -200 -56 -78 44 -72 -17 -78 923 l-5 840
-138 258 c-76 142 -135 262 -132 267 4 6 11 10 16 10 6 0 63 24 128 54 64 30
122 56 129 58 8 2 22 -23 35 -63 83 -242 315 -408 573 -409 79 0 199 31 277
72 80 42 201 163 245 245 60 114 87 280 63 385 -5 20 -6 39 -3 42 9 10 280 7
418 -4z m-710 -99 c21 -142 -73 -286 -213 -327 -171 -50 -347 61 -378 237 l-7
36 114 32 c96 27 346 81 428 93 32 5 48 -14 56 -71z m1037 -2035 c99 -48 102
-28 -47 -308 -105 -199 -135 -247 -152 -248 -33 0 -121 49 -155 88 -90 102
-102 250 -29 365 79 125 246 170 383 103z"/>
<path d="M3098 2999 c-43 -22 -78 -81 -78 -129 0 -74 76 -150 149 -150 77 0
151 74 151 150 0 50 -35 107 -80 130 -49 25 -94 25 -142 -1z"/>
<path d="M1898 2849 c-123 -64 -93 -296 56 -444 173 -173 441 -178 622 -13 82
76 144 214 144 324 0 80 -72 154 -150 154 -76 0 -150 -74 -150 -151 0 -74 -76
-149 -151 -149 -73 0 -149 76 -149 150 0 50 -35 107 -80 130 -49 25 -94 25
-142 -1z"/>
</g>
</svg>
